<svg height="23" viewBox="0 0 23 23" width="23" xmlns="http://www.w3.org/2000/svg"><g fill="#fff" fill-rule="evenodd"><path d="M11.771 14.893a3.621 3.621 0 110-7.243 3.621 3.621 0 010 7.243m0-9.2a5.579 5.579 0 100 11.157 5.579 5.579 0 000-11.157m7.103-.221a1.304 1.304 0 11-2.607 0 1.304 1.304 0 012.607 0"/><path d="M11.771.407c-2.95 0-3.32.013-4.479.066-1.156.053-1.946.236-2.637.505a5.32 5.32 0 00-1.924 1.253 5.325 5.325 0 00-1.253 1.924c-.269.691-.452 1.48-.505 2.637C.92 7.951.907 8.321.907 11.272c0 2.95.013 3.32.066 4.478.053 1.157.236 1.947.505 2.638a5.32 5.32 0 001.253 1.924c.604.604 1.21.975 1.924 1.253.691.268 1.48.452 2.637.505 1.159.053 1.529.065 4.48.065 2.95 0 3.32-.012 4.478-.065 1.157-.053 1.947-.237 2.638-.505a5.325 5.325 0 001.924-1.253 5.325 5.325 0 001.253-1.924c.268-.691.452-1.481.505-2.638.053-1.158.065-1.528.065-4.479 0-2.95-.012-3.32-.065-4.479-.053-1.156-.237-1.946-.505-2.637a5.325 5.325 0 00-1.253-1.924A5.325 5.325 0 0018.888.978C18.197.709 17.407.526 16.25.473 15.092.42 14.722.407 11.771.407m0 1.958c2.901 0 3.245.01 4.39.063 1.06.049 1.635.225 2.017.374.508.197.87.433 1.25.813.38.38.615.742.812 1.25.15.382.326.957.374 2.016.053 1.146.064 1.49.064 4.39 0 2.901-.011 3.245-.064 4.39-.048 1.06-.225 1.635-.374 2.018a3.367 3.367 0 01-.812 1.249 3.36 3.36 0 01-1.25.812c-.382.15-.958.326-2.017.374-1.145.053-1.489.064-4.39.064-2.9 0-3.244-.011-4.39-.064-1.059-.048-1.634-.225-2.017-.374a3.366 3.366 0 01-1.25-.812 3.366 3.366 0 01-.812-1.25c-.149-.382-.325-.958-.374-2.017-.052-1.145-.063-1.489-.063-4.39 0-2.9.01-3.244.063-4.39.049-1.059.225-1.634.374-2.017.197-.507.433-.869.813-1.249.38-.38.742-.616 1.249-.813.383-.149.958-.325 2.017-.374 1.146-.052 1.49-.063 4.39-.063"/></g></svg>