<svg height="19" viewBox="0 0 27 19" width="27" xmlns="http://www.w3.org/2000/svg"><path d="M10.908 12.407v-7l7 3.512zm15.74-8.117s-.255-1.763-1.034-2.54C24.625.73 23.517.726 23.009.667c-3.638-.26-9.096-.26-9.096-.26h-.011s-5.458 0-9.096.26C4.297.726 3.19.73 2.2 1.75c-.78.777-1.033 2.54-1.033 2.54s-.26 2.072-.26 4.142v1.942c0 2.071.26 4.142.26 4.142s.254 1.763 1.033 2.54c.99 1.02 2.289.988 2.867 1.094 2.08.197 8.84.257 8.84.257s5.464-.008 9.102-.267c.508-.06 1.616-.064 2.605-1.084.78-.777 1.033-2.54 1.033-2.54s.26-2.07.26-4.142V8.432c0-2.07-.26-4.142-.26-4.142z" fill="#fff" fill-rule="evenodd"/></svg>