<svg width="251" height="138" xmlns="http://www.w3.org/2000/svg"><g fill="none" fill-rule="evenodd"><path d="M0 0h251v133a5 5 0 01-5 5H5a5 5 0 01-5-5V0z" fill=""/><path d="M60 106h13V42H60zm-19 5h13V47H41zm37-9h13V38H78zm36.406-8.983a6.037 6.037 0 01-.976 1.713c-.8.938-2.065 1.762-3.905 1.762-2.994 0-5.283-2.215-5.283-6.03 0-3.879 2.481-5.964 5.362-5.964 3.522 0 4.354 2.732 4.61 3.524l-2.112.566c-.033-.21-.129-.696-.417-1.132-.24-.356-.864-1.002-2.033-1.002-1.84 0-3.12 1.536-3.12 3.976 0 2.602 1.36 4.041 3.136 4.041 1.057 0 1.697-.517 2.161-1.115a3.8 3.8 0 00.593-1.18l1.984.84zm6.772-6.563c-1.937 0-3.233 1.584-3.233 3.96 0 2.57 1.408 4.106 3.28 4.106 1.41 0 3.219-1.034 3.267-3.783.047-2.23-1.089-4.283-3.314-4.283m-.016 10.038c-1.425 0-2.737-.404-3.89-1.746-1.12-1.309-1.504-2.797-1.504-4.235 0-3.491 2.337-6.013 5.426-6.013 2.8 0 5.426 2.101 5.41 5.997-.016 3.265-1.969 5.997-5.442 5.997m17.913-11.703V96.2h-2.065l.192-9.375-2.433 9.375h-1.905l-2.45-9.375.209 9.375h-2.065V84.789h3.073l2.21 8.47 2.16-8.47zm13.67 0V96.2h-2.065l.192-9.375-2.433 9.375h-1.904l-2.45-9.375.209 9.375h-2.065V84.789h3.073l2.209 8.47 2.16-8.47zm3.218 11.411h2.082V84.79h-2.082zm6.211-3.394c.273.42 1.121 1.73 3.506 1.73.4 0 .816-.032 1.216-.194.817-.34.96-.921.96-1.31 0-.727-.495-.985-.848-1.131-.256-.097-.288-.113-1.312-.355l-1.36-.291c-.72-.178-1.073-.259-1.426-.404-.512-.21-1.904-.906-1.904-2.797 0-2.166 1.809-3.556 4.466-3.556 2.433 0 3.746 1.212 4.546 2.311l-1.729 1.31c-.384-.566-1.12-1.698-2.93-1.698-1.136 0-2.128.518-2.128 1.39 0 .97 1.056 1.164 2.08 1.358l1.17.26c1.52.323 3.665.953 3.665 3.394 0 2.618-2.4 3.67-4.802 3.67a7.497 7.497 0 01-2.017-.26c-.752-.226-2.081-.776-2.929-2.166l1.776-1.26zm11.014 0c.272.42 1.12 1.73 3.505 1.73.4 0 .817-.032 1.217-.194.817-.34.96-.921.96-1.31 0-.727-.496-.985-.848-1.131-.256-.097-.288-.113-1.312-.355l-1.361-.291c-.72-.178-1.073-.259-1.425-.404-.512-.21-1.904-.906-1.904-2.797 0-2.166 1.808-3.556 4.465-3.556 2.433 0 3.746 1.212 4.546 2.311l-1.728 1.31c-.385-.566-1.12-1.698-2.93-1.698-1.136 0-2.129.518-2.129 1.39 0 .97 1.057 1.164 2.081 1.358l1.169.26c1.52.323 3.665.953 3.665 3.394 0 2.618-2.4 3.67-4.802 3.67a7.497 7.497 0 01-2.017-.26c-.752-.226-2.08-.776-2.928-2.166l1.776-1.26zm10.485 3.394h2.08V84.79h-2.08zm9.572-9.746c-1.936 0-3.233 1.584-3.233 3.96 0 2.57 1.409 4.106 3.281 4.106 1.41 0 3.218-1.034 3.266-3.783.048-2.23-1.089-4.283-3.314-4.283m-.015 10.038c-1.425 0-2.738-.404-3.89-1.746-1.12-1.309-1.505-2.797-1.505-4.235 0-3.491 2.337-6.013 5.427-6.013 2.8 0 5.426 2.101 5.41 5.997-.016 3.265-1.969 5.997-5.442 5.997m14.134-11.703h2.082V96.2h-1.842l-4.945-8.002.127 8.002h-2.064V84.789h1.905l4.994 8.066zM106.305 70.547v3.573h.736c.72 0 .992-.017 1.393-.033.464-.016 1.985-.097 1.985-1.762 0-.242-.016-1.083-.897-1.535-.448-.227-.992-.243-2.24-.243h-.977zm-2.097-1.843h3.602c1.504.017 2.513.017 3.505.825.704.582 1.249 1.487 1.249 2.813 0 2.182-1.585 2.941-2.225 3.135l2.513 4.64h-2.417l-2.241-4.236h-1.889v4.236h-2.097V68.704zm18.169 1.908v2.683h5.443v1.843h-5.443v3.055h6.355v1.924h-8.436V68.705h8.036v1.907zm15.864 2.845h4.722v1.826h-4.722v4.834h-2.097V68.705h7.475v1.907h-5.378zm21.45-4.752v7.193c-.016 1.293-.016 2.36-1.216 3.394-1.153 1.019-2.641 1.116-3.41 1.116-.688 0-1.36-.081-2-.308-1.345-.468-2.065-1.454-2.321-2.311-.145-.501-.145-.857-.161-2.28v-6.804h2.113v7.015c0 .485-.016.953.145 1.39.432 1.1 1.616 1.228 2.288 1.228.336 0 1.185-.016 1.81-.565.623-.566.623-1.212.623-2.166v-6.902h2.13zm17.369 5.172v6.24h-1.809v-.97c-1.008 1.002-2.145 1.26-3.09 1.26-3.489 0-5.33-2.812-5.33-5.883 0-3.589 2.353-6.11 5.459-6.11 2.353 0 4.082 1.455 4.77 3.362l-2.017.824c-.208-.63-.816-2.263-2.737-2.263-2.129 0-3.17 1.875-3.17 4.122 0 2.506 1.36 3.944 3.202 3.944 1.184 0 2.593-.63 2.785-2.65h-2.817v-1.876h4.754zm10.166-3.265v2.683h5.442v1.843h-5.442v3.055h6.354v1.924h-8.436V68.705h8.036v1.907zm15.8 0v2.683h5.442v1.843h-5.442v3.055h6.354v1.924h-8.436V68.705h8.036v1.907zm-89.982-18.257c.336 1.23.672 2.457 1.04 3.686.625 2.198.736 2.554 1.089 4.769.336-2.263.416-2.651.928-4.979.24-1.164.497-2.328.736-3.476h2.802l-2.866 11.413h-2.913c-.352-1.261-.688-2.522-1.056-3.767-.609-2.1-.64-2.182-.976-3.782-.29 1.406-.32 1.52-.961 3.702l-1.089 3.847h-2.913L104 52.355h2.817c1.216 5.416 1.345 6.014 1.68 8.487.417-2.263.53-2.7 1.121-4.963l.929-3.524h2.497zm18.685 2.862c-.48-.518-1.216-.84-1.985-.84-1.712 0-2.801 1.519-2.801 3.587 0 2.716 1.505 3.718 2.833 3.718 1.345 0 2.786-.97 2.865-3.362.048-1.196-.272-2.408-.912-3.103m-1.953 8.874c-3.585 0-5.619-2.78-5.619-6.078 0-3.087 1.938-6.013 5.571-6.013a6.21 6.21 0 012.065.34c3.458 1.212 3.682 5.01 3.682 5.786 0 1.972-.897 3.75-2.145 4.769-1.105.921-2.386 1.196-3.554 1.196m24.091-11.736v11.413h-2.704l.175-8.131.032-1.147-.095.403c-.144.647-.16.728-.289 1.213l-2.129 7.662h-2.433l-2.048-7.339-.496-2.037c.047.905.047 1.1.095 2.182l.144 7.194h-2.736V52.355h4.13l1.728 6.402.4 1.826c.16-.792.176-.872.305-1.406l1.808-6.822h4.113zm6.997 0h8.355v2.215h-5.538v2.07h5.17v2.165h-5.17v2.716h6.035v2.247h-8.852zm15.128 0h2.769l2.45 4.203c.895 1.6 1.167 2.118 1.696 3.12l-.128-7.323h2.705v11.413h-2.769l-2.113-3.605c-1.025-1.697-1.216-2.053-1.985-3.572l.08 7.177h-2.705V52.355zm15.448 0h2.545v2.328c-.032.809-.176 1.536-.672 2.166-.209.243-.8.841-1.873.97v-1.148c.736-.226.992-.614 1.024-1.664h-1.024v-2.652zm9.7 7.985c.289.324.529.583 1.089.89.753.404 1.52.55 2.177.55 1.12 0 2.08-.534 2.08-1.326 0-.905-1.136-1.05-1.968-1.164a23.335 23.335 0 01-1.857-.291c-.688-.145-3.041-.646-3.041-3.103 0-2.942 2.593-3.815 4.546-3.815 2.61 0 4.018 1.277 4.994 2.166l-2.081 1.503c-.352-.355-.672-.663-1.12-.921-.4-.227-1.121-.501-1.841-.501-1.12 0-1.68.646-1.68 1.196 0 .873.96 1.002 1.44 1.066 1.2.146 2.817.453 3.457.68 1.297.485 1.953 1.503 1.953 2.796 0 .824-.304 1.73-.896 2.425-1.025 1.196-2.658 1.535-4.242 1.535-3.185 0-4.45-1.487-5.154-2.311l2.145-1.374z" fill="#FEFEFE"/></g></svg>